#!OML:ASF F:\VICON\USERDATA\INSTALL\rory3\rory3.ASF
:FULLY-SPECIFIED
:DEGREES
1731
root 1.73981 9.91993 -5.21015 342.286 34.351 358.839
lowerback 28.8482 0.281098 -1.34473
upperback 12.7041 0.522687 0.713855
thorax -1.64953 0.381609 1.39449
lowerneck -23.0245 -6.00626 -11.7257
upperneck 10.3351 -5.75379 7.86408
head 7.46144 -2.49347 3.74698
rclavicle -1.75987e-014 1.84994e-014
rhumerus -6.95074 13.3522 -81.1073
rradius 86.5783
rwrist 40.684
rhand -26.3545 12.5604
rfingers 7.12502
rthumb 0.203396 -377.419
lclavicle -1.75987e-014 1.84994e-014
lhumerus -4.57885 -4.84 84.7092
lradius 80.02
lwrist -22.3125
lhand -30.2161 18.6951
lfingers 7.12502
lthumb -3.52616 48.6457
rfemur -76.5261 -20.3289 19.3207
rtibia 103.821
rfoot -4.3015 4.66348
rtoes 9.41088
lfemur -75.1971 20.1643 -12.5488
ltibia 103.987
lfoot -7.6953 -18.3044
ltoes -4.32946
1732
root 1.74009 9.91819 -5.21005 342.371 34.3172 358.901
lowerback 28.7648 0.33928 -1.40367
upperback 12.7119 0.581616 0.706702
thorax -1.60496 0.408178 1.40371
lowerneck -23.0055 -6.00252 -11.6311
upperneck 10.292 -5.76827 7.80503
head 7.44061 -2.50203 3.70979
rclavicle -4.56708e-014 -8.41108e-015
rhumerus -6.945 13.2473 -81.0935
rradius 86.5526
rwrist 40.7271
rhand -26.3662 12.5852
rfingers 7.12502
rthumb 0.19201 -377.395
lclavicle -4.56708e-014 -8.41108e-015
lhumerus -4.54259 -4.91525 84.7205
lradius 79.995
lwrist -22.3345
lhand -30.2094 18.7115
lfingers 7.12502
lthumb -3.51966 48.6622
rfemur -76.606 -20.2805 19.3009
rtibia 103.832
rfoot -4.27495 4.64626
rtoes 9.49722
lfemur -75.2442 20.2037 -12.6013
ltibia 103.993
lfoot -7.71478 -18.2785
ltoes -4.33956
1733
root 1.74112 9.91513 -5.20885 342.397 34.2758 358.899
lowerback 28.6982 0.366521 -1.38864
upperback 12.7315 0.62048 0.699221
thorax -1.55395 0.427895 1.37611
lowerneck -23.0292 -6.03259 -11.619
upperneck 10.2751 -5.80784 7.79943
head 7.44213 -2.52019 3.70003
rclavicle 2.28105e-014 -2.45126e-014
rhumerus -6.92414 13.1696 -81.1113
rradius 86.542
rwrist 40.7795
rhand -26.3499 12.6002
rfingers 7.12502
rthumb 0.207785 -377.379
lclavicle 2.28105e-014 -2.45126e-014
lhumerus -4.49041 -4.99635 84.7
lradius 79.9882
lwrist -22.2665
lhand -30.2876 18.7972
lfingers 7.12502
lthumb -3.59517 48.7467
rfemur -76.6597 -20.2393 19.3289
rtibia 103.844
rfoot -4.24725 4.66132
rtoes 9.54931
lfemur -75.2929 20.2404 -12.5833
ltibia 104.02
lfoot -7.68829 -18.2733
ltoes -4.28748
1734
root 1.74108 9.91496 -5.20842 342.404 34.2725 358.907
lowerback 28.7113 0.362218 -1.3916
upperback 12.7216 0.612912 0.684267
thorax -1.57071 0.424527 1.36349
lowerneck -23.0771 -6.03764 -11.6223
upperneck 10.3264 -5.80777 7.78528
head 7.46635 -2.52104 3.69542
rclavicle -1.07468e-014 -1.02871e-014
rhumerus -6.9566 13.1923 -81.1327
rradius 86.5369
rwrist 40.8123
rhand -26.3773 12.596
rfingers 7.12502
rthumb 0.181305 -377.384
lclavicle -1.07468e-014 -1.02871e-014
lhumerus -4.52125 -4.97363 84.6863
lradius 80.0204
lwrist -22.2602
lhand -30.3131 18.7309
lfingers 7.12502
lthumb -3.61978 48.6799
rfemur -76.653 -20.2291 19.308
rtibia 103.841
rfoot -4.22645 4.68382
rtoes 9.87959
lfemur -75.2888 20.2328 -12.5773
ltibia 104.027
lfoot -7.676 -18.2522
ltoes -4.3071
1735
root 1.74116 9.91493 -5.20809 342.411 34.2528 358.865
lowerback 28.7209 0.374833 -1.39161
upperback 12.6807 0.628072 0.71383
thorax -1.6221 0.43078 1.39113
lowerneck -23.0475 -6.03493 -11.5875
upperneck 10.342 -5.80877 7.72308
head 7.46361 -2.52682 3.66887
rclavicle -1.74434e-014 4.05521e-014
rhumerus -7.0514 13.1934 -81.1051
rradius 86.5428
rwrist 40.8412
rhand -26.3933 12.6476
rfingers 7.12502
rthumb 0.165842 -377.332
lclavicle -1.74434e-014 4.05521e-014
lhumerus -4.56439 -4.93875 84.7449
lradius 80.0088
lwrist -22.2433
lhand -30.349 18.7037
lfingers 7.12502
lthumb -3.65452 48.6521
rfemur -76.6813 -20.2072 19.3533
rtibia 103.831
rfoot -4.23374 4.69421
rtoes 10.0222
lfemur -75.3351 20.2692 -12.5506
ltibia 104.033
lfoot -7.68213 -18.2765
ltoes -4.16652
1736
root 1.74143 9.91516 -5.20905 342.405 34.2869 358.855
lowerback 28.7274 0.378363 -1.42851
upperback 12.6732 0.625554 0.761826
thorax -1.63386 0.42653 1.46549
lowerneck -23.0138 -6.03497 -11.6406
upperneck 10.3437 -5.79343 7.70485
head 7.45815 -2.52429 3.67358
rclavicle -1.28185e-014 -1.70209e-015
rhumerus -7.05221 13.2252 -81.025
rradius 86.5348
rwrist 40.8447
rhand -26.3424 12.6556
rfingers 7.12502
rthumb 0.215015 -377.324
lclavicle -1.28185e-014 -1.70209e-015
lhumerus -4.56421 -4.91064 84.824
lradius 79.9762
lwrist -22.247
lhand -30.4469 18.7932
lfingers 7.12502
lthumb -3.74902 48.74
rfemur -76.687 -20.2461 19.354
rtibia 103.833
rfoot -4.24279 4.68718
rtoes 9.77013
lfemur -75.3476 20.2433 -12.569
ltibia 104.027
lfoot -7.68221 -18.2908
ltoes -4.07791
1737
root 1.74127 9.91545 -5.20911 342.383 34.317 358.879
lowerback 28.7326 0.374495 -1.43103
upperback 12.6895 0.62023 0.741372
thorax -1.61744 0.424803 1.44616
lowerneck -22.9261 -6.03195 -11.64
upperneck 10.2551 -5.80093 7.73243
head 7.41652 -2.52632 3.68243
rclavicle 3.53091e-014 -2.7159e-014
rhumerus -7.0252 13.2013 -81.0203
rradius 86.5098
rwrist 40.8511
rhand -26.3748 12.6823
rfingers 7.12502
rthumb 0.18371 -377.297
lclavicle 3.53091e-014 -2.7159e-014
lhumerus -4.5605 -4.97366 84.7897
lradius 79.9622
lwrist -22.1969
lhand -30.5027 18.859
lfingers 7.12502
lthumb -3.80294 48.8048
rfemur -76.6648 -20.283 19.323
rtibia 103.84
rfoot -4.23912 4.65054
rtoes 9.40836
lfemur -75.2848 20.2217 -12.5872
ltibia 104.014
lfoot -7.66861 -18.3074
ltoes -4.01536
1738
root 1.74062 9.915 -5.20831 342.309 34.3464 358.823
lowerback 28.7784 0.352382 -1.36701
upperback 12.6872 0.607936 0.72727
thorax -1.64015 0.422283 1.39734
lowerneck -22.8425 -6.015 -11.573
upperneck 10.1757 -5.7991 7.69613
head 7.37343 -2.52722 3.66034
rclavicle -6.31203e-014 1.92076e-014
rhumerus -7.05456 13.1917 -81.03
rradius 86.5296
rwrist 40.8181
rhand -26.3208 12.6489
rfingers 7.12502
rthumb 0.235882 -377.331
lclavicle -6.31203e-014 1.92076e-014
lhumerus -4.58204 -5.0417 84.7377
lradius 79.9598
lwrist -22.0655
lhand -30.5342 18.749
lfingers 7.12502
lthumb -3.83329 48.6942
rfemur -76.6053 -20.3235 19.348
rtibia 103.85
rfoot -4.27159 4.64091
rtoes 9.34804
lfemur -75.2565 20.1889 -12.5426
ltibia 104.015
lfoot -7.67645 -18.2858
ltoes -4.31947
1739
root 1.7397 9.91551 -5.20738 342.265 34.4005 358.739
lowerback 28.7798 0.325781 -1.3375
upperback 12.6976 0.584266 0.758292
thorax -1.62843 0.410863 1.42134
lowerneck -22.8822 -6.01206 -11.5045
upperneck 10.1591 -5.795 7.60507
head 7.36838 -2.52997 3.6186
rclavicle 5.34855e-015 -2.55563e-014
rhumerus -7.0289 13.2312 -80.9951
rradius 86.5191
rwrist 40.8046
rhand -26.2648 12.6285
rfingers 7.12502
rthumb 0.290027 -377.351
lclavicle 5.34855e-015 -2.55563e-014
lhumerus -4.54928 -5.04604 84.7519
lradius 79.9521
lwrist -21.9781
lhand -30.4681 18.7653
lfingers 7.12502
lthumb -3.76951 48.7117
rfemur -76.59 -20.3836 19.404
rtibia 103.851
rfoot -4.29027 4.63509
rtoes 9.39187
lfemur -75.283 20.1157 -12.49
ltibia 104.007
lfoot -7.67044 -18.2852
ltoes -4.46869
1740
root 1.74031 9.91573 -5.20823 342.269 34.4477 358.735
lowerback 28.8034 0.30559 -1.33115
upperback 12.6899 0.560582 0.763511
thorax -1.64707 0.399486 1.43014
lowerneck -22.9032 -6.01344 -11.4874
upperneck 10.1613 -5.79216 7.56118
head 7.37004 -2.53161 3.60113
rclavicle 1.16333e-013 -2.19657e-014
rhumerus -7.02489 13.2738 -80.9706
rradius 86.5238
rwrist 40.782
rhand -26.2257 12.4663
rfingers 7.12502
rthumb 0.327773 -377.513
lclavicle 1.16333e-013 -2.19657e-014
lhumerus -4.55838 -5.05884 84.749
lradius 79.9636
lwrist -21.8467
lhand -30.4481 18.7579
lfingers 7.12502
lthumb -3.75016 48.7047
rfemur -76.5875 -20.4409 19.3741
rtibia 103.851
rfoot -4.26847 4.66633
rtoes 9.86243
lfemur -75.2894 20.0557 -12.5111
ltibia 103.998
lfoot -7.69204 -18.2734
ltoes -4.54594
1741
root 1.74039 9.91534 -5.20857 342.306 34.4582 358.787
lowerback 28.8013 0.300542 -1.35797
upperback 12.6899 0.546229 0.740383
thorax -1.64543 0.392064 1.42436
lowerneck -22.9391 -6.00583 -11.4316
upperneck 10.1604 -5.78071 7.47939
head 7.36963 -2.53077 3.56571
rclavicle -4.77083e-014 1.25359e-014
rhumerus -7.05886 13.3084 -80.9851
rradius 86.5312
rwrist 40.8083
rhand -26.314 12.3298
rfingers 7.12502
rthumb 0.242454 -377.65
lclavicle -4.77083e-014 1.25359e-014
lhumerus -4.56893 -5.05848 84.7217
lradius 79.9752
lwrist -21.678
lhand -30.6219 18.7709
lfingers 7.12502
lthumb -3.918 48.7146
rfemur -76.5808 -20.4321 19.3018
rtibia 103.842
rfoot -4.24522 4.68964
rtoes 10.4641
lfemur -75.2836 20.0322 -12.5494
ltibia 103.998
lfoot -7.68394 -18.2599
ltoes -4.40526
1742
root 1.74082 9.91492 -5.20856 342.303 34.4415 358.763
lowerback 28.7938 0.295574 -1.32317
upperback 12.6831 0.54808 0.737192
thorax -1.64973 0.39433 1.40036
lowerneck -23.0355 -6.01734 -11.4379
upperneck 10.2485 -5.78339 7.46111
head 7.41395 -2.53279 3.55931
rclavicle -6.75868e-015 -3.57191e-014
rhumerus -7.06808 13.3206 -80.9889
rradius 86.5282
rwrist 40.8114
rhand -26.2748 12.3223
rfingers 7.12502
rthumb 0.280303 -377.657
lclavicle -6.75868e-015 -3.57191e-014
lhumerus -4.57281 -5.09874 84.7055
lradius 79.9844
lwrist -21.526
lhand -30.6437 18.8814
lfingers 7.12502
lthumb -3.93906 48.8247
rfemur -76.5912 -20.411 19.3231
rtibia 103.839
rfoot -4.25838 4.72095
rtoes 10.2616
lfemur -75.3066 20.0365 -12.5164
ltibia 104.006
lfoot -7.66767 -18.2714
ltoes -4.36961
1743
root 1.74061 9.91453 -5.20902 342.298 34.4379 358.731
lowerback 28.7823 0.294347 -1.28422
upperback 12.6776 0.556187 0.737261
thorax -1.65113 0.399837 1.37575
lowerneck -23.1054 -6.0263 -11.5511
upperneck 10.3246 -5.77728 7.59004
head 7.45782 -2.5215 3.62153
rclavicle -2.31708e-014 1.00635e-015
rhumerus -7.06754 13.289 -80.9866
rradius 86.5361
rwrist 40.895
rhand -26.2039 12.3762
rfingers 7.12502
rthumb 0.348797 -377.603
lclavicle -2.31708e-014 1.00635e-015
lhumerus -4.57196 -5.15934 84.6788
lradius 79.9902
lwrist -21.4032
lhand -30.5439 18.9593
lfingers 7.12502
lthumb -3.84274 48.9044
rfemur -76.597 -20.4066 19.356
rtibia 103.83
rfoot -4.25707 4.73268
rtoes 10.2401
lfemur -75.35 20.0392 -12.4995
ltibia 104.017
lfoot -7.6603 -18.28
ltoes -4.41441
1744
root 1.73972 9.91499 -5.21005 342.266 34.4325 358.649
lowerback 28.7655 0.270618 -1.21914
upperback 12.6858 0.542733 0.734909
thorax -1.63368 0.395678 1.33989
lowerneck -23.115 -6.00213 -11.5473
upperneck 10.2982 -5.75198 7.6402
head 7.44982 -2.504 3.64147
rclavicle -1.01256e-014 4.5969e-015
rhumerus -7.02937 13.2986 -81.0041
rradius 86.5241
rwrist 40.9012
rhand -26.2334 12.3727
rfingers 7.12502
rthumb 0.320334 -377.607
lclavicle -1.01256e-014 4.5969e-015
lhumerus -4.53028 -5.17681 84.6232
lradius 79.9882
lwrist -21.2964
lhand -30.4642 18.8797
lfingers 7.12502
lthumb -3.76571 48.8261
rfemur -76.6201 -20.4043 19.4524
rtibia 103.83
rfoot -4.26861 4.65913
rtoes 9.94885
lfemur -75.3958 20.0566 -12.4478
ltibia 104.026
lfoot -7.67633 -18.3007
ltoes -4.35164
